<svg width="142" height="48" viewBox="0 0 142 48" fill="none" xmlns="http://www.w3.org/2000/svg">
<g clip-path="url(#clip0_15517_2536)">
<path d="M50.1278 20.931C50.0874 21.6676 49.9663 22.399 49.7545 23.11C49.3106 24.573 48.4632 25.9182 47.2829 26.8696C45.6638 28.1842 43.4141 28.6343 41.3864 28.3735C39.4445 28.1279 37.6992 26.6599 36.5088 25.151C36.3424 24.9412 35.9994 24.9617 35.8077 25.11C35.6009 25.2737 35.5353 25.5704 35.6715 25.8057C36.4332 27.1152 37.5429 28.1586 38.8694 28.8594C39.853 29.376 40.9627 29.6829 42.0724 29.7903C42.0623 30.0308 42.0623 30.2763 42.0522 30.5218C42.027 31.1458 42.0321 31.7699 42.027 32.3939C42.0169 33.6574 42.0068 34.9208 42.0068 36.1791C42.0068 38.6906 42.0068 41.2021 41.9968 43.7136V47.3402C41.9362 47.3556 41.8757 47.3709 41.8152 47.3863C41.6235 47.4272 41.4318 47.4681 41.2401 47.509C41.0636 47.5397 40.8921 47.5704 40.7156 47.6011C40.6399 47.6113 40.5592 47.6216 40.4835 47.6318C40.4835 47.6318 40.4768 47.6335 40.4634 47.6369C40.4079 47.642 40.3524 47.6522 40.2919 47.6625C39.0258 47.8722 37.7295 47.8722 36.4584 47.7341C35.268 47.6011 34.0019 47.4937 32.8721 47.0794C31.9288 46.7315 31.1117 46.0154 30.5669 45.1714C29.9768 44.2507 29.654 43.0794 29.8002 41.9796C29.8406 41.6471 30.0373 40.4553 30.9856 39.509C31.1974 39.2942 32.1609 38.5883 33.4723 38.2763C34.3096 38.0819 35.1722 38.041 36.0145 37.8824C36.1457 37.8568 36.3121 37.7801 36.2869 37.6471C36.2667 37.5397 36.1356 37.5039 36.0296 37.4937C35.7522 37.4681 35.4798 37.4528 35.2024 37.4528C35.0662 37.4476 34.93 37.4528 34.7939 37.4528H34.7737C34.5164 37.4067 34.2592 37.376 34.0019 37.3505C33.5026 37.2891 33.0083 37.2072 32.519 37.0794C31.7876 36.885 31.0814 36.5934 30.4711 36.1331C29.886 35.688 29.4472 35.11 29.1496 34.4349C29.0083 34.1075 28.8923 33.775 28.8066 33.4374C28.7259 32.9617 28.6502 32.4349 28.5846 31.8415C28.5796 31.8313 28.5796 31.821 28.5796 31.8057C28.5645 31.6164 28.5594 31.4221 28.5544 31.2277C28.5493 30.9157 28.5897 30.5781 28.5039 30.2763C28.4838 30.1689 28.4484 30.0717 28.3879 29.9643C28.2971 29.821 28.0853 29.8159 27.9945 29.9643C27.7927 30.3121 27.8633 30.7418 27.8532 31.1254C27.8432 31.5141 27.823 31.8978 27.7826 32.2865C27.712 33.0026 27.5456 33.6727 27.258 34.3326C26.9655 35.0077 26.5216 35.5857 25.9365 36.0256C25.3262 36.486 24.62 36.7827 23.8886 36.9771C23.3994 37.1049 22.905 37.1868 22.4057 37.243C22.1484 37.2737 21.8912 37.3044 21.639 37.3453C21.3969 37.3863 21.1497 37.4016 20.9227 37.4988C20.8622 37.5244 20.842 37.5806 20.842 37.642C20.8168 37.775 20.9833 37.8517 21.1144 37.8773C21.9568 38.0359 22.8243 38.0768 23.6566 38.2712C24.9176 38.573 25.8608 39.2226 26.1433 39.5039C27.944 41.2737 27.8532 44.3786 25.8306 45.9233C24.8621 46.665 23.7423 47.1254 22.5772 47.4476C21.9971 47.6113 20.7311 47.908 19.0363 47.995H16.9026C16.1006 47.9591 15.2986 47.8568 14.542 47.5806C14.6782 47.0538 14.7488 46.486 14.7942 45.9131C14.8446 45.3146 14.8598 44.7111 14.89 44.1484C14.9506 42.9668 15.001 41.7904 15.0414 40.6139C15.117 38.1279 15.1372 35.6369 15.1019 33.151C15.0868 31.8927 15.0817 30.6292 14.9405 29.376C15.9846 29.0026 16.9985 28.4604 17.8005 27.6829C18.0123 27.4783 18.1384 27.284 18.3402 27.018C18.5016 26.8134 18.6378 26.5832 18.774 26.353C18.9202 26.0921 18.5873 25.8568 18.3755 26.041C18.1838 26.2098 17.982 26.3735 17.7752 26.5167C17.6744 26.5883 17.5735 26.6548 17.4726 26.7213L17.4524 26.7315C17.4524 26.7315 17.4726 26.7264 17.4776 26.7264C17.4726 26.7315 17.4524 26.7418 17.4171 26.752C17.407 26.7571 17.2809 26.8441 17.2658 26.8543C17.2456 26.8645 17.2254 26.8799 17.2204 26.885C17.1901 26.9054 17.1548 26.931 17.1195 26.9515C16.6857 27.2481 16.2318 27.5295 15.7627 27.7648C15.6517 27.821 15.5357 27.8722 15.4197 27.9285L15.3642 27.9489C15.3642 27.9489 15.3339 27.9643 15.3289 27.9694C15.2583 27.995 15.1876 28.0256 15.117 28.0512C14.8648 28.1484 14.6076 28.2354 14.3503 28.307C14.0981 28.3786 13.8459 28.44 13.5887 28.4911C13.4575 28.5167 13.3213 28.5423 13.1902 28.5627C13.165 28.5627 13.1398 28.5627 13.1145 28.573C13.0439 28.5781 12.9733 28.5883 12.9027 28.5985C12.363 28.6548 11.8233 28.6701 11.2836 28.6395C11.1575 28.6343 11.0313 28.6241 10.9052 28.6088C10.8447 28.6036 10.7892 28.5985 10.7287 28.5934C10.6934 28.5883 10.6631 28.5832 10.6228 28.5781H10.6026C10.3353 28.532 10.0629 28.4809 9.79556 28.4195C9.24576 28.2916 8.70604 28.1126 8.17642 27.8978C8.1512 27.8875 8.13102 27.8773 8.1058 27.8671C8.09571 27.862 8.08563 27.8568 8.07554 27.8568C8.07049 27.8568 8.06545 27.8517 8.05536 27.8517C8.00997 27.8313 7.96457 27.8057 7.92422 27.7903C7.79812 27.729 7.66697 27.6676 7.54087 27.6062C7.28867 27.4783 7.03646 27.3402 6.79435 27.1919C6.54719 27.0487 6.30508 26.8901 6.07305 26.7264C5.96208 26.6497 5.85111 26.573 5.74014 26.4911C5.71492 26.4707 5.68466 26.4502 5.64935 26.4246C5.62918 26.4042 5.52325 26.3274 5.4829 26.2967C5.47785 26.2967 5.46272 26.2814 5.45263 26.2712C5.0138 25.9387 4.60019 25.5551 4.2118 25.1612C3.82341 24.7673 3.42493 24.3223 3.07184 23.862C3.07184 23.8568 3.05671 23.8415 3.04662 23.8313C3.04158 23.8262 3.04158 23.821 3.03654 23.8159C2.99114 23.7597 2.95079 23.6983 2.90539 23.642C2.81964 23.5192 2.73389 23.4016 2.65319 23.284C2.48673 23.0384 2.33037 22.7929 2.17905 22.5423C1.8764 22.041 1.60403 21.5244 1.35687 20.9873C1.30138 20.8645 1.2459 20.7366 1.19041 20.6139C1.18033 20.5934 1.17528 20.5781 1.17024 20.5576C1.13493 20.4758 1.09962 20.3888 1.06431 20.3019C0.963432 20.041 0.867595 19.7699 0.776803 19.5039C0.595217 18.9412 0.443896 18.3786 0.317794 17.8006C0.26231 17.5244 0.211869 17.243 0.166473 16.9617C0.151341 16.885 0.141253 16.8134 0.131165 16.7418C0.131165 16.7315 0.126121 16.7213 0.126121 16.7059C0.126121 16.7059 0.126121 16.6855 0.121077 16.665C0.121077 16.6599 0.121077 16.6548 0.116033 16.6343C0.1009 16.4962 0.0857683 16.3632 0.0706361 16.2302C-0.0403329 15.064 -0.0201567 13.9029 0.116033 12.7366C0.116033 12.7162 0.121077 12.6906 0.126121 12.665C0.136209 12.5985 0.141253 12.5372 0.156385 12.4707C0.176561 12.3172 0.201781 12.1637 0.232046 12.0154C0.282486 11.7392 0.343015 11.4681 0.413631 11.2021C0.539732 10.6753 0.701142 10.1535 0.887772 9.64201C0.933168 9.50902 0.983609 9.38114 1.03405 9.25326C1.05423 9.197 1.07945 9.14073 1.09962 9.08447C1.10467 9.06912 1.12484 9.0282 1.12989 9.01797C1.13493 9.00774 1.13493 9.00262 1.13493 9.00262C1.2459 8.74687 1.36191 8.49623 1.48297 8.2507C1.72004 7.75966 1.98737 7.28395 2.27488 6.8236C2.42116 6.5883 2.57248 6.36324 2.73389 6.13306C2.80955 6.03076 2.88521 5.92334 2.96087 5.82104C2.99618 5.76989 3.03654 5.72385 3.07184 5.6727C3.09202 5.64201 3.11724 5.61132 3.13742 5.58574C3.47537 5.15608 3.82845 4.74687 4.20675 4.35812C4.5901 3.96426 4.99363 3.58574 5.41228 3.2328C5.51316 3.15096 5.61404 3.06912 5.71492 2.99239C5.71492 2.98216 5.73006 2.97705 5.74014 2.96682C5.81076 2.91567 5.87633 2.86452 5.94695 2.81336C6.1588 2.6548 6.38074 2.50134 6.59763 2.35301C7.06673 2.0461 7.556 1.75966 8.05536 1.50902C8.31261 1.37602 8.57994 1.2328 8.85232 1.1305C8.88258 1.11515 8.92798 1.09981 8.94816 1.09469C9.01373 1.064 9.08435 1.03843 9.15496 1.00774C9.2962 0.956587 9.43743 0.905436 9.57866 0.854285C10.1436 0.649682 10.7186 0.485999 11.3037 0.353006C11.5862 0.28651 11.8737 0.230244 12.1612 0.184208C12.2873 0.158633 12.4185 0.153518 12.5446 0.122827C12.5395 0.122827 12.5345 0.122827 12.5345 0.127942C12.5748 0.122827 12.6253 0.112597 12.6454 0.107482C12.7312 0.0972519 12.8169 0.0870218 12.8976 0.0819067C14.083 -0.0459706 15.2784 -0.0357404 16.4587 0.112597C16.484 0.112597 16.5041 0.117712 16.5294 0.117712C16.5949 0.127942 16.6555 0.138173 16.716 0.148403C16.8774 0.173978 17.0338 0.199554 17.1901 0.230244C17.4827 0.28651 17.7752 0.347891 18.0678 0.424618C18.6378 0.56784 19.2027 0.746868 19.7525 0.956587C19.8786 1.00774 20.0047 1.05889 20.1359 1.11004C20.156 1.12027 20.1762 1.1305 20.1964 1.14073L20.4234 1.24303C20.6857 1.36068 20.9429 1.49367 21.1951 1.62666C21.7146 1.91311 22.214 2.23024 22.6881 2.58319C22.7436 2.62411 22.7991 2.67014 22.8546 2.71106C22.8697 2.72129 22.8798 2.73152 22.8899 2.74175C23.016 2.83894 23.132 2.94124 23.2531 3.04354C23.475 3.23792 23.6869 3.44252 23.8937 3.65735C24.0904 3.86196 24.2821 4.07679 24.4586 4.30186C24.4838 4.33255 24.509 4.36324 24.5292 4.38881C24.5393 4.40416 24.5595 4.42973 24.5746 4.44508C24.5948 4.47577 24.615 4.50134 24.62 4.51157C24.6553 4.55761 24.6856 4.60365 24.7158 4.64968C25.1345 5.17654 25.4825 5.72897 25.765 6.30697C26.0878 6.95659 26.2997 7.60109 26.4661 8.31209C26.5872 8.8236 26.4661 9.90288 27.0462 10.1791C27.369 10.3325 27.5708 9.96426 27.596 9.69316C27.6515 9.06912 27.5809 8.43996 27.5304 7.82615C27.5002 7.47833 27.4497 7.12539 27.3841 6.78267C27.3236 6.47577 27.2026 6.18421 27.1269 5.88242C27.0916 5.74943 27.0462 5.61132 27.0058 5.47833C26.9705 5.38114 26.9403 5.28907 26.8999 5.197C26.8949 5.197 26.8949 5.18165 26.8949 5.17654C26.8898 5.17142 26.8898 5.16631 26.8898 5.16119C26.8747 5.11516 26.8545 5.07423 26.8394 5.0282C26.6982 4.68549 26.5468 4.36324 26.3451 4.05122C26.2795 3.94891 26.2038 3.84661 26.1332 3.74431C26.1837 3.73408 26.2392 3.72897 26.2896 3.71874C26.3047 3.71874 26.3451 3.70851 26.3653 3.70851C26.4006 3.70339 26.4308 3.69828 26.4661 3.69316C26.6477 3.6727 26.8243 3.64712 27.0058 3.61643C27.0512 3.61132 27.0966 3.6062 27.142 3.59597C27.1471 3.59597 27.1572 3.59597 27.1673 3.59086C27.2429 3.58063 27.3186 3.57551 27.3892 3.56528C27.7019 3.53459 28.0147 3.51413 28.3274 3.50902C28.6502 3.5039 28.9781 3.51413 29.2958 3.53971C29.4472 3.55505 29.5934 3.56528 29.7397 3.58063C29.8154 3.59086 29.886 3.59597 29.9617 3.6062C29.9919 3.61132 30.0121 3.61132 30.0171 3.61132C30.0474 3.61643 30.0827 3.62666 30.113 3.63178C30.7334 3.72897 31.3437 3.88242 31.9339 4.09725C32.0751 4.1484 32.2113 4.19955 32.3475 4.25582C32.3626 4.26093 32.3778 4.27116 32.3929 4.27628C32.408 4.2814 32.4484 4.30186 32.4635 4.30697C32.5392 4.34278 32.6148 4.37858 32.6905 4.41439C32.9729 4.54738 33.2453 4.69572 33.5127 4.8594C33.7699 5.01285 34.0171 5.17654 34.2541 5.35556C34.3096 5.39649 34.3651 5.43741 34.4206 5.47833C34.4408 5.49879 34.4609 5.50902 34.4811 5.52948C34.6022 5.62666 34.7182 5.72385 34.8292 5.82615C35.273 6.2149 35.6766 6.64457 36.0448 7.11004C36.075 7.14585 36.1154 7.18165 36.1406 7.22769C36.1406 7.2328 36.1507 7.24303 36.1557 7.25326C36.1759 7.27884 36.1961 7.30441 36.2163 7.3351C36.3071 7.45787 36.3979 7.58574 36.4836 7.71362C36.64 7.95403 36.7963 8.20467 36.9325 8.46042C37.0939 8.74687 37.2352 9.03843 37.3663 9.34022C37.3764 9.3658 37.3915 9.39137 37.4016 9.42206C37.4117 9.43741 37.4117 9.44764 37.4168 9.45787C37.442 9.52948 37.4722 9.60109 37.4975 9.6727C37.558 9.82615 37.6135 9.97961 37.6589 10.1331C37.7648 10.4502 37.8505 10.7776 37.9212 11.1049C37.9565 11.2635 37.9867 11.4221 38.012 11.5857C38.017 11.6113 38.022 11.6369 38.022 11.6676C37.5832 11.8875 37.1545 12.1382 36.7459 12.4093C35.1873 13.4579 33.8758 14.8185 33.1445 16.5832C33.1041 16.6855 33.0637 16.798 33.1041 16.8952C33.1545 17.0333 33.3361 17.0793 33.4723 17.0333C33.6085 16.9822 33.7144 16.8696 33.8103 16.7622C35.6362 14.7622 37.9111 13.1049 40.5188 12.4348C42.0119 12.0512 43.6159 12.0052 45.0736 12.5065C48.4784 13.6778 50.2993 17.4425 50.1278 20.9259V20.931Z" fill="#396039"/>
<path d="M37.1797 32.6087C34.7283 32.8747 34.5114 33.0946 34.2491 35.5806C33.9868 33.0946 33.7699 32.8747 31.3185 32.6087C33.7699 32.3427 33.9868 32.1228 34.2491 29.6368C34.5114 32.1228 34.7283 32.3427 37.1797 32.6087Z" fill="#FAF0E6"/>
<path d="M48.1252 25.2839C48.1252 25.2839 48.1101 25.3094 48.1 25.3298C48.095 25.34 48.0899 25.3451 48.0849 25.3553C48.0849 25.3553 48.0799 25.3656 48.0748 25.3656C48.0748 25.3656 48.0698 25.3707 48.0648 25.3758C48.0648 25.3758 48.0597 25.3809 48.0547 25.386C48.1 25.3145 48.1252 25.2839 48.1302 25.2787L48.1252 25.2839Z" fill="#FAF0E6"/>
<path d="M41.7444 28.1276H41.7343C41.7092 28.1276 41.689 28.1175 41.6638 28.1175C41.6286 28.1074 41.6236 28.0973 41.7494 28.1276H41.7444Z" fill="#FAF0E6"/>
<path d="M49.4821 18.936C49.467 18.89 49.457 18.8849 49.4972 19.0279C49.4972 19.0279 49.4972 19.0279 49.4972 19.0228C49.4922 18.9921 49.4821 18.9666 49.4821 18.936Z" fill="#FAF0E6"/>
<path d="M45.2147 12.7004C45.1291 12.6801 45.104 12.67 45.114 12.67C45.1442 12.6801 45.1795 12.6903 45.2097 12.7004H45.2147Z" fill="#FAF0E6"/>
<path d="M45.3055 27.5601C45.3055 27.5601 45.3005 27.5601 45.2954 27.5651C45.2954 27.5651 45.2904 27.5651 45.2854 27.5702C45.2854 27.5702 45.2803 27.5702 45.2753 27.5752C45.2552 27.5853 45.23 27.6005 45.2098 27.6055C45.2652 27.5752 45.2904 27.5601 45.3005 27.5601H45.3055Z" fill="#FAF0E6"/>
<path d="M49.023 23.6931C49.023 23.6931 49.0079 23.739 48.9979 23.7645C48.9979 23.7748 48.9878 23.785 48.9878 23.7952C48.9878 23.7952 48.9878 23.8003 48.9878 23.8054C49.013 23.7339 49.023 23.7033 49.0331 23.6931H49.023Z" fill="#FAF0E6"/>
<path d="M69.1035 20.2864C68.7252 20.2302 68.3418 20.2967 67.9534 20.4808C67.4944 20.7212 67.0152 20.89 66.5159 20.9872C66.0165 21.0793 65.5222 21.1253 65.0228 21.1253C64.1199 21.1253 63.2776 20.9923 62.5058 20.7212C61.7291 20.4501 61.0582 20.0358 60.4882 19.4731C59.9183 18.9105 59.4693 18.2097 59.1465 17.3708C58.8237 16.5268 58.6623 15.5396 58.6623 14.399C58.6623 13.4271 58.8035 12.5371 59.091 11.734C59.3785 10.9309 59.7972 10.2353 60.352 9.64704C60.9069 9.05881 61.5727 8.60356 62.3596 8.28643C63.1414 7.96929 64.0342 7.81072 65.0279 7.81072C65.5625 7.81072 66.072 7.86699 66.5613 7.97952C67.0505 8.09205 67.5146 8.25062 67.9585 8.45523C68.3469 8.64448 68.7302 8.71609 69.1085 8.68029C69.4868 8.64448 69.7945 8.45523 70.0366 8.11763C70.3847 7.68796 70.5208 7.21226 70.4351 6.6854C70.3493 6.15855 70.0719 5.78003 69.5927 5.53451C68.9118 5.18157 68.1804 4.91047 67.4087 4.72121C66.6319 4.53195 65.84 4.43988 65.0279 4.43988C63.5903 4.43988 62.2637 4.6854 61.0431 5.18157C59.8275 5.67773 58.7682 6.36827 57.8754 7.25829C56.9826 8.14832 56.2916 9.19691 55.8023 10.4143C55.313 11.6317 55.0709 12.9565 55.0709 14.399C55.0709 16.0614 55.3383 17.5243 55.8729 18.7877C56.4076 20.0511 57.139 21.0997 58.0721 21.9437C59.0053 22.7877 60.0645 23.422 61.2549 23.8516C62.4453 24.2813 63.7013 24.4961 65.0329 24.4961C65.5676 24.4961 66.0922 24.4552 66.6117 24.3683C67.1262 24.2813 67.6407 24.1637 68.1451 24.0051C68.6495 23.8465 69.1438 23.647 69.623 23.4015C70.082 23.1765 70.3645 22.8184 70.4654 22.3222C70.5662 21.8261 70.4351 21.3453 70.0669 20.8798C69.8096 20.5422 69.4919 20.3478 69.1136 20.2915L69.1035 20.2864Z" fill="#10310B"/>
<path d="M83.5697 9.92322C82.4348 9.25826 81.1688 8.92578 79.7665 8.92578C78.3643 8.92578 77.0982 9.25826 75.9633 9.92322C74.8284 10.5882 73.9255 11.5038 73.2547 12.67C72.5838 13.8414 72.2458 15.1918 72.2458 16.7212C72.2458 18.2506 72.5838 19.6061 73.2547 20.7723C73.9255 21.9437 74.8335 22.8542 75.9633 23.5089C77.0982 24.1636 78.3643 24.491 79.7665 24.491C81.1688 24.491 82.4348 24.1636 83.5697 23.5089C84.7046 22.8542 85.6075 21.9437 86.2784 20.7723C86.9492 19.6061 87.2872 18.2506 87.2872 16.7212C87.2872 15.1918 86.9492 13.8363 86.2784 12.67C85.6075 11.5038 84.7046 10.5831 83.5697 9.92322ZM83.4033 19.1815C83.025 19.8823 82.5206 20.4296 81.88 20.8235C81.2394 21.2173 80.5383 21.4117 79.7665 21.4117C78.9948 21.4117 78.2886 21.2173 77.6531 20.8235C77.0175 20.4296 76.5081 19.8823 76.1298 19.1815C75.7515 18.4808 75.5648 17.6624 75.5648 16.7263C75.5648 15.7902 75.7515 14.9462 76.1298 14.2455C76.5081 13.5447 77.0125 12.9974 77.6531 12.6035C78.2937 12.2097 78.9948 12.0153 79.7665 12.0153C80.5383 12.0153 81.2444 12.2097 81.88 12.6035C82.5155 12.9974 83.025 13.5447 83.4033 14.2455C83.7816 14.9462 83.9682 15.7749 83.9682 16.7263C83.9682 17.6777 83.7765 18.4808 83.4033 19.1815Z" fill="#10310B"/>
<path d="M98.0916 24.1432C98.6919 23.9079 99.2114 23.6266 99.6553 23.289C99.9832 23.0383 100.261 22.7877 100.488 22.5319C100.493 23.0076 100.649 23.4015 100.957 23.7238C101.269 24.0511 101.668 24.2148 102.147 24.2148C102.626 24.2148 103.025 24.0511 103.337 23.7238C103.65 23.3964 103.807 22.9923 103.807 22.5013V5.17133C103.807 4.66494 103.65 4.25573 103.337 3.93859C103.025 3.62146 102.626 3.46289 102.147 3.46289C101.668 3.46289 101.269 3.62657 100.957 3.95394C100.644 4.28131 100.488 4.69051 100.488 5.17645V10.6854C100.326 10.5319 100.15 10.3785 99.9478 10.225C99.4586 9.85164 98.8835 9.54473 98.2177 9.29921C97.5519 9.0588 96.8256 8.93604 96.0337 8.93604C94.7979 8.93604 93.673 9.26852 92.6592 9.93348C91.6453 10.5984 90.8383 11.514 90.238 12.6803C89.6378 13.8516 89.3402 15.202 89.3402 16.7314C89.3402 18.2608 89.6378 19.5857 90.238 20.757C90.8383 21.9284 91.6554 22.844 92.6844 23.5038C93.7184 24.1688 94.8685 24.5013 96.1396 24.5013C96.8407 24.5013 97.4914 24.3836 98.0916 24.1483V24.1432ZM93.0274 19.11C92.6844 18.399 92.518 17.6061 92.518 16.7263C92.518 15.8465 92.6895 15.023 93.0274 14.312C93.3704 13.601 93.8445 13.0383 94.4498 12.6291C95.0602 12.2199 95.7613 12.0102 96.5532 12.0102C97.3451 12.0102 98.0765 12.2148 98.6818 12.6291C99.2921 13.0383 99.7663 13.601 100.104 14.312C100.447 15.023 100.614 15.8261 100.614 16.7263C100.614 17.6266 100.442 18.399 100.104 19.11C99.7612 19.8209 99.2871 20.3836 98.6818 20.7928C98.0715 21.202 97.3653 21.4117 96.5532 21.4117C95.7411 21.4117 95.0602 21.2071 94.4498 20.7928C93.8395 20.3836 93.3654 19.8209 93.0274 19.11Z" fill="#10310B"/>
<path d="M116.886 24.0307C117.753 23.7237 118.424 23.3606 118.903 22.9514C119.418 22.5422 119.68 22.0818 119.68 21.5754C119.68 21.202 119.544 20.8746 119.282 20.5933C119.014 20.312 118.676 20.1739 118.273 20.1739C117.975 20.1739 117.662 20.2557 117.33 20.4245C117.128 20.537 116.901 20.6752 116.654 20.8286C116.407 20.9872 116.079 21.1253 115.67 21.2378C115.267 21.3503 114.722 21.4066 114.036 21.4066C113.299 21.4066 112.603 21.2225 111.948 20.8593C111.292 20.4961 110.757 19.9642 110.344 19.2583C110.101 18.8491 109.94 18.3836 109.839 17.8721H118.959C119.403 17.8721 119.791 17.734 120.119 17.4526C120.452 17.1713 120.623 16.8081 120.644 16.358C120.644 15.3503 120.452 14.3938 120.079 13.4987C119.7 12.6035 119.191 11.8107 118.545 11.1304C117.9 10.4501 117.158 9.90789 116.321 9.51914C115.483 9.12528 114.591 8.93091 113.652 8.93091C112.437 8.93091 111.282 9.24804 110.197 9.88232C109.108 10.5166 108.23 11.4322 107.554 12.6189C106.883 13.8056 106.545 15.2429 106.545 16.9258C106.545 18.3682 106.853 19.6573 107.474 20.7979C108.089 21.9386 108.977 22.844 110.127 23.5038C111.277 24.1688 112.639 24.5012 114.207 24.5012C115.13 24.5012 116.023 24.3478 116.891 24.0409L116.886 24.0307ZM110.858 12.9923C111.206 12.6393 111.625 12.3836 112.104 12.2353C112.583 12.0869 113.098 12.0102 113.652 12.0102C114.207 12.0102 114.762 12.1381 115.272 12.3887C115.776 12.6393 116.205 12.9821 116.543 13.4117C116.886 13.8414 117.072 14.3273 117.108 14.8695V15.0639H109.864C109.91 14.8337 109.96 14.6138 110.026 14.4194C110.228 13.8209 110.505 13.3452 110.858 12.9872V12.9923Z" fill="#10310B"/>
<path d="M131.599 6.57289L134.363 8.06138C134.474 8.11764 134.585 8.15856 134.696 8.18925C134.807 8.21483 134.908 8.23017 134.999 8.23017C135.347 8.23017 135.629 8.1381 135.841 7.94884C136.053 7.75959 136.159 7.51918 136.159 7.21739C136.159 6.95652 136.028 6.70076 135.771 6.46035L133.39 4.32736C133.203 4.15856 132.996 4.01534 132.769 3.89258C132.537 3.76982 132.295 3.70844 132.038 3.70844C131.725 3.70844 131.402 3.8312 131.07 4.07161C130.737 4.31713 130.57 4.64961 130.57 5.07928C130.57 5.36061 130.656 5.63171 130.832 5.89258C131.009 6.15345 131.261 6.37851 131.594 6.56777L131.599 6.57289Z" fill="#10310B"/>
<path d="M141.531 9.40661C141.218 9.08948 140.82 8.93091 140.341 8.93091C139.861 8.93091 139.463 9.09459 139.15 9.42196C138.837 9.74932 138.681 10.1534 138.681 10.6393V10.6803C138.52 10.5268 138.343 10.3734 138.141 10.2199C137.652 9.84651 137.077 9.5396 136.411 9.29408C135.745 9.05367 135.019 8.93091 134.227 8.93091C132.991 8.93091 131.867 9.26339 130.853 9.92835C129.839 10.5933 129.032 11.5089 128.432 12.6752C127.831 13.8465 127.534 15.1969 127.534 16.7263C127.534 18.2557 127.831 19.5805 128.432 20.7519C129.032 21.9232 129.849 22.8388 130.878 23.4987C131.912 24.1636 133.062 24.4961 134.333 24.4961C135.034 24.4961 135.685 24.3785 136.285 24.1432C136.885 23.9079 137.405 23.6266 137.849 23.289C138.177 23.0383 138.454 22.7877 138.681 22.5319C138.686 23.0076 138.842 23.4015 139.15 23.7237C139.463 24.0511 139.861 24.2148 140.341 24.2148C140.82 24.2148 141.218 24.0511 141.531 23.7237C141.844 23.3964 142 22.9923 142 22.5012V10.6342C142 10.1278 141.844 9.71863 141.531 9.4015V9.40661ZM138.308 19.1099C137.965 19.8209 137.491 20.3836 136.885 20.7928C136.275 21.202 135.569 21.4117 134.757 21.4117C133.945 21.4117 133.264 21.2071 132.653 20.7928C132.043 20.3836 131.569 19.8209 131.231 19.1099C130.888 18.3989 130.722 17.6061 130.722 16.7263C130.722 15.8465 130.893 15.023 131.231 14.312C131.574 13.601 132.048 13.0383 132.653 12.6291C133.264 12.2199 133.965 12.0102 134.757 12.0102C135.549 12.0102 136.28 12.2148 136.885 12.6291C137.496 13.0383 137.97 13.601 138.308 14.312C138.651 15.023 138.817 15.8261 138.817 16.7263C138.817 17.6266 138.646 18.3989 138.308 19.1099Z" fill="#10310B"/>
<path d="M69.1035 42.9053C68.7252 42.8491 68.3418 42.9156 67.9534 43.0997C67.4944 43.3452 67.0152 43.5089 66.5159 43.6061C66.0165 43.6982 65.5222 43.7442 65.0228 43.7442C64.1199 43.7442 63.2776 43.6112 62.5058 43.3401C61.7291 43.069 61.0582 42.6547 60.4882 42.092C59.9183 41.5294 59.4693 40.8286 59.1465 39.9897C58.8237 39.1457 58.6623 38.1585 58.6623 37.0179C58.6623 36.046 58.8035 35.156 59.091 34.3529C59.3785 33.5498 59.7972 32.8542 60.352 32.2659C60.9069 31.6777 61.5727 31.2225 62.3596 30.9053C63.1414 30.5882 64.0342 30.4296 65.0279 30.4296C65.5625 30.4296 66.072 30.4859 66.5613 30.5984C67.0505 30.711 67.5146 30.8695 67.9585 31.0741C68.3469 31.2634 68.7302 31.335 69.1085 31.2992C69.4868 31.2634 69.7945 31.0741 70.0366 30.7365C70.3847 30.3069 70.5208 29.8312 70.4351 29.3043C70.3493 28.7774 70.0719 28.3989 69.5927 28.1534C68.9118 27.8005 68.1804 27.5294 67.4087 27.3401C66.6319 27.1508 65.84 27.0588 65.0279 27.0588C63.5903 27.0588 62.2637 27.3043 61.0431 27.8005C59.8275 28.2966 58.7682 28.9872 57.8754 29.8772C56.9826 30.7672 56.2916 31.8158 55.8023 33.0332C55.313 34.2506 55.0709 35.5754 55.0709 37.0179C55.0709 38.6803 55.3383 40.1432 55.8729 41.4066C56.4076 42.67 57.139 43.7186 58.0721 44.5626C59.0053 45.4015 60.0645 46.0409 61.2549 46.4705C62.4453 46.9002 63.7013 47.115 65.0329 47.115C65.5676 47.115 66.0922 47.0741 66.6117 46.9872C67.1262 46.9002 67.6407 46.7826 68.1451 46.624C68.6495 46.4654 69.1438 46.2659 69.623 46.0204C70.082 45.7954 70.3645 45.4373 70.4654 44.9411C70.5662 44.445 70.4351 43.9641 70.0669 43.4987C69.8096 43.1611 69.4919 42.9667 69.1136 42.9104L69.1035 42.9053Z" fill="#10310B"/>
<path d="M83.4185 31.826C82.9393 31.826 82.5408 31.9897 82.2281 32.3171C81.9154 32.6445 81.759 33.0537 81.759 33.5396V40.6649C81.759 41.8056 81.5119 42.6496 81.0125 43.202C80.5131 43.7544 79.7565 44.0307 78.7427 44.0307C77.7288 44.0307 77.0025 43.7544 76.5031 43.202C76.0038 42.6496 75.7566 41.8056 75.7566 40.6649V33.5396C75.7566 33.0537 75.6002 32.6445 75.2875 32.3171C74.9748 31.9897 74.5763 31.826 74.0971 31.826C73.6179 31.826 73.2194 31.9897 72.9067 32.3171C72.594 32.6445 72.4376 33.0537 72.4376 33.5396V40.6649C72.4376 42.6496 72.9773 44.2199 74.0568 45.3759C75.1362 46.537 76.6998 47.1151 78.7427 47.1151C80.7855 47.1151 82.3542 46.537 83.4437 45.3759C84.5332 44.2148 85.078 42.6445 85.078 40.6649V33.5396C85.078 33.0537 84.9216 32.6445 84.6089 32.3171C84.2962 31.9897 83.8977 31.826 83.4185 31.826Z" fill="#10310B"/>
<path d="M89.4764 31.826C88.9972 31.826 88.5987 31.9897 88.286 32.3171C87.9733 32.6445 87.8169 33.0537 87.8169 33.5396V45.1253C87.8169 45.6112 87.9733 46.0204 88.286 46.3427C88.5987 46.67 88.9972 46.8337 89.4764 46.8337C89.9556 46.8337 90.354 46.67 90.6668 46.3427C90.9795 46.0153 91.1359 45.6112 91.1359 45.1253V33.5396C91.1359 33.0537 90.9795 32.6445 90.6668 32.3171C90.354 31.9897 89.9556 31.826 89.4764 31.826Z" fill="#10310B"/>
<path d="M89.4763 26.6649C88.8862 26.6649 88.4473 26.7621 88.1598 26.9616C87.8723 27.156 87.7311 27.5294 87.7311 28.0716V28.6035C87.7311 29.1253 87.8572 29.4936 88.1195 29.6982C88.3767 29.9028 88.8206 30.0051 89.4461 30.0051C90.0715 30.0051 90.5255 29.9079 90.8029 29.7084C91.0803 29.514 91.2165 29.1406 91.2165 28.5984V28.0665C91.2165 27.5447 91.0854 27.1764 90.8281 26.9718C90.5709 26.7672 90.1169 26.6649 89.4713 26.6649H89.4763Z" fill="#10310B"/>
<path d="M102.833 39.2839C102.354 38.9463 101.829 38.6752 101.254 38.4706C100.679 38.266 100.119 38.0869 99.5695 37.9386C99.0348 37.7903 98.5304 37.6368 98.0613 37.4731C97.5922 37.3145 97.2189 37.1099 96.9415 36.8542C96.6641 36.6036 96.5279 36.2608 96.5279 35.8312C96.5279 35.3657 96.649 35.023 96.886 34.8082C97.1282 34.5933 97.4056 34.4552 97.7284 34.3887C98.0512 34.3222 98.3488 34.2915 98.6262 34.2915C99.3072 34.2915 99.9125 34.4143 100.437 34.6547C100.962 34.9002 101.38 35.2276 101.698 35.6368C101.935 35.8619 102.243 35.9897 102.611 36.0153C102.979 36.046 103.302 35.9437 103.579 35.7186C103.968 35.4015 104.144 35.0434 104.104 34.6547C104.064 34.266 103.948 33.9232 103.746 33.647C103.358 33.1406 102.878 32.7365 102.308 32.4245C101.738 32.1176 101.138 31.8926 100.513 31.7493C99.8873 31.6112 99.287 31.5396 98.717 31.5396C97.8141 31.5396 96.9516 31.7186 96.1294 32.0716C95.3073 32.4296 94.6414 32.9309 94.1219 33.5856C93.6074 34.2404 93.3451 35.0332 93.3451 35.9693C93.3451 36.7928 93.5015 37.4731 93.8142 38.0153C94.127 38.5575 94.5355 38.9923 95.0298 39.3197C95.5292 39.647 96.074 39.913 96.6742 40.1176C97.2744 40.3222 97.8595 40.5115 98.4295 40.6803C98.9844 40.8286 99.4837 40.9872 99.9377 41.156C100.392 41.3248 100.755 41.5294 101.032 41.7749C101.31 42.0204 101.446 42.3478 101.446 42.757C101.446 43.2429 101.32 43.601 101.073 43.8363C100.825 44.0716 100.533 44.2199 100.2 44.2864C99.8671 44.3529 99.5644 44.3938 99.287 44.4143C98.4043 44.4143 97.6628 44.266 97.0727 43.9642C96.4825 43.6675 95.9176 43.2429 95.3829 42.7007C95.0702 42.3836 94.7474 42.2097 94.4145 42.1841C94.0815 42.1585 93.7688 42.2353 93.4763 42.4245C93.0173 42.7212 92.7751 43.0793 92.755 43.4885C92.7348 43.8977 92.8205 44.2353 93.0021 44.4961C93.7234 45.468 94.6263 46.1483 95.7108 46.5319C96.8003 46.9156 97.8848 47.1048 98.9743 47.1048C99.8419 47.1048 100.689 46.9309 101.516 46.5882C102.349 46.2404 103.04 45.734 103.59 45.0588C104.144 44.3836 104.422 43.5703 104.422 42.6189C104.422 41.7954 104.276 41.1202 103.978 40.5831C103.68 40.0511 103.297 39.6163 102.818 39.2787L102.833 39.2839Z" fill="#10310B"/>
<path d="M108.008 26.6649C107.418 26.6649 106.979 26.7621 106.697 26.9616C106.409 27.156 106.268 27.5294 106.268 28.0716V28.6035C106.268 29.1253 106.399 29.4936 106.656 29.6982C106.914 29.9028 107.357 30.0051 107.983 30.0051C108.608 30.0051 109.062 29.9079 109.34 29.7084C109.617 29.514 109.753 29.1406 109.753 28.5984V28.0665C109.753 27.5447 109.622 27.1764 109.365 26.9718C109.108 26.7672 108.654 26.6649 108.008 26.6649Z" fill="#10310B"/>
<path d="M108.008 31.826C107.529 31.826 107.131 31.9897 106.818 32.3171C106.505 32.6445 106.349 33.0537 106.349 33.5396V45.1253C106.349 45.6112 106.505 46.0204 106.818 46.3427C107.131 46.67 107.529 46.8337 108.008 46.8337C108.487 46.8337 108.886 46.67 109.199 46.3427C109.511 46.0153 109.668 45.6112 109.668 45.1253V33.5396C109.668 33.0537 109.511 32.6445 109.199 32.3171C108.886 31.9897 108.487 31.826 108.008 31.826Z" fill="#10310B"/>
<path d="M123.428 32.4143C122.717 31.8363 121.683 31.5447 120.316 31.5447C119.69 31.5447 119.11 31.6419 118.575 31.8414C118.041 32.0358 117.562 32.2967 117.138 32.6138C116.714 32.9309 116.346 33.2736 116.033 33.6368C115.917 33.7698 115.826 33.8977 115.731 34.0256V33.5396C115.731 33.0537 115.574 32.6445 115.262 32.3171C114.949 31.9898 114.55 31.8261 114.071 31.8261C113.592 31.8261 113.193 31.9898 112.881 32.3171C112.568 32.6445 112.412 33.0537 112.412 33.5396V45.1253C112.412 45.6112 112.568 46.0204 112.881 46.3427C113.193 46.6701 113.592 46.8337 114.071 46.8337C114.55 46.8337 114.949 46.6701 115.262 46.3427C115.574 46.0153 115.731 45.6112 115.731 45.1253V37.9437C115.731 37.3248 115.862 36.7724 116.129 36.2762C116.396 35.78 116.785 35.3811 117.289 35.0844C117.794 34.7877 118.419 34.6343 119.156 34.6343C119.892 34.6343 120.492 34.7826 120.901 35.0844C121.304 35.3862 121.587 35.78 121.743 36.2762C121.899 36.7724 121.98 37.3299 121.98 37.9437V45.1253C121.98 45.6112 122.137 46.0204 122.449 46.3427C122.762 46.6701 123.16 46.8337 123.64 46.8337C124.119 46.8337 124.517 46.6701 124.83 46.3427C125.143 46.0153 125.299 45.6112 125.299 45.1253V37.9437C125.299 36.7672 125.163 35.6931 124.901 34.7314C124.633 33.7698 124.144 32.9974 123.433 32.4194L123.428 32.4143Z" fill="#10310B"/>
<path d="M139.538 33.7442C138.893 33.0639 138.151 32.5217 137.314 32.133C136.477 31.7391 135.584 31.5447 134.646 31.5447C133.43 31.5447 132.275 31.8619 131.191 32.4961C130.101 33.1304 129.223 34.046 128.548 35.2327C127.877 36.4194 127.539 37.8568 127.539 39.5396C127.539 40.9821 127.846 42.2711 128.467 43.4117C129.082 44.5524 129.97 45.4578 131.12 46.1176C132.27 46.7826 133.632 47.1151 135.201 47.1151C136.124 47.1151 137.016 46.9616 137.884 46.6496C138.752 46.3427 139.422 45.9795 139.902 45.5703C140.416 45.1611 140.678 44.7008 140.678 44.1944C140.678 43.821 140.542 43.4936 140.28 43.2123C140.013 42.9309 139.675 42.7928 139.271 42.7928C138.974 42.7928 138.661 42.8798 138.328 43.0435C138.126 43.156 137.899 43.2941 137.652 43.4527C137.405 43.6112 137.077 43.7493 136.668 43.8568C136.265 43.9693 135.72 44.0256 135.034 44.0256C134.298 44.0256 133.602 43.8414 132.946 43.4782C132.29 43.1151 131.756 42.5831 131.342 41.8772C131.1 41.468 130.938 41.0025 130.838 40.491H139.957C140.401 40.491 140.789 40.3529 141.117 40.0716C141.45 39.7903 141.622 39.4271 141.642 38.977C141.642 37.9693 141.45 37.0128 141.077 36.1176C140.699 35.2225 140.189 34.4297 139.544 33.7493L139.538 33.7442ZM131.846 35.6112C132.194 35.2583 132.613 35.0025 133.092 34.8542C133.571 34.7059 134.086 34.6291 134.641 34.6291C135.196 34.6291 135.75 34.757 136.26 35.0077C136.764 35.2583 137.193 35.601 137.531 36.0307C137.874 36.4603 138.061 36.9463 138.096 37.4885V37.6828H130.853C130.898 37.4527 130.948 37.2327 131.014 37.0383C131.216 36.4399 131.493 35.9642 131.846 35.6061V35.6112Z" fill="#10310B"/>
</g>
<defs>
<clipPath id="clip0_15517_2536">
<rect width="142" height="48" fill="white"/>
</clipPath>
</defs>
</svg>
